{"title":"American.Beach.House.2015.BRRip.480p.x264.AAC-VYTO [P2PDL]","uid":12213661,"size":349218542,"categoryP":"video","categoryS":"movies","magnet":"?xt=urn:btih:3892d9e5574de0288d6039a86f8948fe3a1de2d7&amp;dn=American.Beach.House.2015.BRRip.480p.x264.AAC-VYTO+%5BP2PDL%5D&amp;tr=udp%3A%2F%2Ftracker.openbittorrent.com%3A80&amp;tr=udp%3A%2F%2Fopen.demonii.com%3A1337&amp;tr=udp%3A%2F%2Ftracker.coppersurfer.tk%3A6969&amp;tr=udp%3A%2F%2Fexodus.desync.com%3A6969","seeders":16,"leechers":4,"uploader":"ValidusVyto","files":6,"time":1439183980,"description":"____    ____ ____    ____ .___________.  ______   \n     /   /      /   / |           | /  __    \n    /   /      /   /  `---|  |----`|  |  |  | \n        /     _    _/       |  |     |  |  |  | \n       /        |  |         |  |     |  `--'  | \n    __/         |__|         |__|      ______/  \n                                                  \nPresenting Small Encodes with quality for years!\n                                                                                                   \n                                                                                                   \n\nAmerican.Beach.House.2015.BRRip.480p.x264.AAC-VYTO\n\n\nGenre: Comedy &lt;a href=&quot;\nhttp://www.imdb.com/title/tt3111486/&quot; rel=&quot;nofollow&quot; target=&quot;_NEW&quot;&gt;\nhttp://www.imdb.com/title/tt3111486/&lt;/a&gt;\n\n\nGeneral\nFormat                         : MPEG-4\nFile size                      : 327 MiB\nDuration                       : 1h 32mn\nOverall bit rate               : 492 Kbps\n\nVideo\nFormat                         : AVC\nBit rate                       : 457 Kbps\nWidth                          : 720 pixels\nHeight                         : 400 pixels\nDisplay aspect ratio           : 16:9\nFrame rate mode                : Constant\nFrame rate                     : 23.976 fps\nBit depth                      : 8 bits\nStream size                    : 303 MiB (93%)\nWriting library                : x264 core 148 r2579\n\nAudio\nFormat                         : AAC\nBit rate mode                  : Variable\nBit rate                       : 32.0 Kbps\nChannel(s)                     : 2 channels\nChannel positions              : Front: L R\nSampling rate                  : 48.0 KHz \nStream size                    : 21.2 MiB (7%)\n\nSubtitle                       : N/a\t\t\n\nScreenshots:\n &lt;a href=&quot;\nhttp://ititli.com/k8&quot; rel=&quot;nofollow&quot; target=&quot;_NEW&quot;&gt;\nhttp://ititli.com/k8&lt;/a&gt; &lt;a href=&quot;\nhttp://ititli.com/ke&quot; rel=&quot;nofollow&quot; target=&quot;_NEW&quot;&gt;\nhttp://ititli.com/ke&lt;/a&gt; &lt;a href=&quot;\nhttp://ititli.com/kj&quot; rel=&quot;nofollow&quot; target=&quot;_NEW&quot;&gt;\nhttp://ititli.com/kj&lt;/a&gt; &lt;a href=&quot;\nhttp://ititli.com/kk&quot; rel=&quot;nofollow&quot; target=&quot;_NEW&quot;&gt;\nhttp://ititli.com/kk&lt;/a&gt; &lt;a href=&quot;\nhttp://ititli.com/ko&quot; rel=&quot;nofollow&quot; target=&quot;_NEW&quot;&gt;\nhttp://ititli.com/ko&lt;/a&gt; &lt;a href=&quot;\nhttp://ititli.com/kG&quot; rel=&quot;nofollow&quot; target=&quot;_NEW&quot;&gt;\nhttp://ititli.com/kG&lt;/a&gt; &lt;a href=&quot;\nhttp://ititli.com/kH&quot; rel=&quot;nofollow&quot; target=&quot;_NEW&quot;&gt;\nhttp://ititli.com/kH&lt;/a&gt; &lt;a href=&quot;\nhttp://ititli.com/kM&quot; rel=&quot;nofollow&quot; target=&quot;_NEW&quot;&gt;\nhttp://ititli.com/kM&lt;/a&gt; &lt;a href=&quot;\nhttp://ititli.com/kU&quot; rel=&quot;nofollow&quot; target=&quot;_NEW&quot;&gt;\nhttp://ititli.com/kU&lt;/a&gt; &lt;a href=&quot;\nhttp://ititli.com/kh&quot; rel=&quot;nofollow&quot; target=&quot;_NEW&quot;&gt;\nhttp://ititli.com/kh&lt;/a&gt; &lt;a href=&quot;\nhttp://ititli.com/ks&quot; rel=&quot;nofollow&quot; target=&quot;_NEW&quot;&gt;\nhttp://ititli.com/ks&lt;/a&gt; &lt;a href=&quot;\nhttp://ititli.com/kY&quot; rel=&quot;nofollow&quot; target=&quot;_NEW&quot;&gt;\nhttp://ititli.com/kY&lt;/a&gt;\n\n----------------------------------------------------------------------------------------------------\n\n\nEncoder Notes: Looking For Early Access To Anything You Can Provide DVDScr, R5, DVDR, BluRay, Direct\nAudio, Music Releases and Seedboxes. If You Got anything to offer please contact us.\n\nSupport us by donating BC - 1FgwdzPsd1y25Gea8wP1qni35uGCtmkRCD","torrent":{"xt":"urn:btih:3892d9e5574de0288d6039a86f8948fe3a1de2d7","amp;dn":"American.Beach.House.2015.BRRip.480p.x264.AAC-VYTO+%5BP2PDL%5D","amp;tr":["udp%3A%2F%2Ftracker.openbittorrent.com%3A80","udp%3A%2F%2Fopen.demonii.com%3A1337","udp%3A%2F%2Ftracker.coppersurfer.tk%3A6969","udp%3A%2F%2Fexodus.desync.com%3A6969"],"infoHash":"3892d9e5574de0288d6039a86f8948fe3a1de2d7","infoHashBuffer":{"type":"Buffer","data":[56,146,217,229,87,77,224,40,141,96,57,168,111,137,72,254,58,29,226,215]},"announce":[],"urlList":[]}}